# xmcd
#
# Track frame offsets:
#	150
#	17320
#	32320
#	50932
#
# Disc length: 995 seconds
#
# Revision: 0
# Processed by: cddbd v1.5.1PL0 Copyright (c) Steve Scherf et al.
# Submitted via: EasyCDDAExtractor 8.2.1.1
#
DISCID=2403e104
DTITLE=Samantha Fox - Samantha Fox (limited edition single)
DYEAR=1900
DGENRE=Pop
TTITLE0=The Reason Is You (Radio Edit)
TTITLE1=Just A Dream (Radio Edit)
TTITLE2=Wasted N.R.G. (Trance Mix unreleased track)
TTITLE3=The Reason Is You (Club Mix)
EXTD=
EXTT0=
EXTT1=
EXTT2=
EXTT3=
PLAYORDER=
